<?xml version="1.0" encoding="UTF-8"?>
<svg width="31px" height="31px" viewBox="0 0 31 31" version="1.1" xmlns="http://www.w3.org/2000/svg" xmlns:xlink="http://www.w3.org/1999/xlink">
    <!-- Generator: Sketch 58 (84663) - https://sketch.com -->
    <title>linkedin</title>
    <desc>Created with Sketch.</desc>
    <g id="Page-1" stroke="none" stroke-width="1" fill="none" fill-rule="evenodd">
        <g id="Home-Page" transform="translate(-198.000000, -1883.000000)">
            <g id="Contacts" transform="translate(149.000000, 1735.000000)">
                <g id="social" transform="translate(49.000000, 68.000000)">
                    <g id="linkedin" transform="translate(0.000000, 80.000000)">
                        <rect id="Rectangle" fill="#0077B5" x="0" y="0" width="31" height="31" rx="8"></rect>
                        <g id="004-linkedin" transform="translate(6.200000, 6.200000)" fill="#FFFFFF" fill-rule="nonzero">
                            <path d="M4.64527774,6.2 L0.728055598,6.2 C0.554203019,6.2 0.413333333,6.3366614 0.413333333,6.505184 L0.413333333,18.7081493 C0.413333333,18.876733 0.554203019,19.0133333 0.728055598,19.0133333 L4.64527774,19.0133333 C4.81913031,19.0133333 4.96,18.876733 4.96,18.7081493 L4.96,6.505184 C4.96,6.3366614 4.81913031,6.2 4.64527774,6.2 Z" id="XMLID_802_"></path>
                            <path d="M2.68774658,0 C1.20570953,0 0,1.20498763 0,2.68611008 C0,4.16788733 1.20570953,5.37333333 2.68774658,5.37333333 C4.16860555,5.37333333 5.37333333,4.16782185 5.37333333,2.68611008 C5.37339878,1.20498763 4.16860555,0 2.68774658,0 Z" id="XMLID_803_"></path>
                            <path d="M14.1740092,5.78666667 C12.6533934,5.78666667 11.5293118,6.44800615 10.8475138,7.19945276 L10.8475138,6.40024446 C10.8475138,6.23030883 10.711361,6.09250156 10.5433298,6.09250156 L6.91751734,6.09250156 C6.74948609,6.09250156 6.61333333,6.23030883 6.61333333,6.40024446 L6.61333333,18.7055289 C6.61333333,18.8755261 6.74948609,19.0133333 6.91751734,19.0133333 L10.6953001,19.0133333 C10.8633314,19.0133333 10.9994841,18.8755261 10.9994841,18.7055289 L10.9994841,12.6172665 C10.9994841,10.5656677 11.5503005,9.76639783 12.9639044,9.76639783 C14.5034405,9.76639783 14.6257833,11.0477162 14.6257833,12.7228223 L14.6257833,18.7055904 C14.6257833,18.8755876 14.761936,19.0133333 14.9299673,19.0133333 L18.7091493,19.0133333 C18.8771806,19.0133333 19.0133333,18.8755876 19.0133333,18.7055904 L19.0133333,11.955927 C19.0133333,8.90527165 18.4383647,5.78666667 14.1740092,5.78666667 Z" id="XMLID_804_"></path>
                        </g>
                    </g>
                </g>
            </g>
        </g>
    </g>
</svg>