<?xml version="1.0" encoding="UTF-8"?>
<svg width="31px" height="31px" viewBox="0 0 31 31" version="1.1" xmlns="http://www.w3.org/2000/svg" xmlns:xlink="http://www.w3.org/1999/xlink">
    <!-- Generator: Sketch 58 (84663) - https://sketch.com -->
    <title>skype</title>
    <desc>Created with Sketch.</desc>
    <g id="Page-1" stroke="none" stroke-width="1" fill="none" fill-rule="evenodd">
        <g id="Home-Page" transform="translate(-198.000000, -1843.000000)">
            <g id="Contacts" transform="translate(149.000000, 1735.000000)">
                <g id="social" transform="translate(49.000000, 68.000000)">
                    <g id="email">
                        <g id="skype" transform="translate(0.000000, 40.000000)">
                            <rect id="Rectangle" fill="#4FC1EC" x="-1.77635684e-15" y="-1.0658141e-14" width="31" height="31" rx="8"></rect>
                            <g id="003-skype-logo" transform="translate(6.200000, 6.200000)" fill="#FFFFFF" fill-rule="nonzero">
                                <path d="M18.0233202,11.3633777 C18.1550821,10.7279047 18.2212014,10.1088637 18.2212014,9.50660163 C18.2212014,8.32653038 17.99245,7.19800975 17.5342536,6.12103973 C17.0763172,5.04415643 16.4573531,4.1158551 15.6774912,3.33596232 C14.8976293,2.55606954 13.9694432,1.93715863 12.8924994,1.47905616 C11.8152954,1.0212572 10.6871036,0.792162607 9.50684009,0.792162607 C8.90443831,0.792162607 8.28543081,0.858237579 7.64999102,0.990300811 C6.79173974,0.330114722 5.82617995,0 4.75335501,0 C3.4412863,0 2.32107219,0.464128986 1.39262597,1.39238696 C0.464093038,2.32090507 0,3.4411013 0,4.75319243 C0,5.82600024 0.330119992,6.79154461 0.990229904,7.64978219 C0.858251279,8.28516849 0.792175252,8.90420947 0.792175252,9.50660163 C0.792175252,10.6865428 1.02110007,11.8150201 1.47907977,12.8920768 C1.93701612,13.9689601 2.55598027,14.8973048 3.33592885,15.6773277 C4.11579073,16.4571337 5.04423694,17.0758712 6.12113744,17.534017 C7.19812464,17.9920328 8.32666329,18.2209973 9.50675338,18.2209973 C10.1091118,18.2209973 10.7281193,18.1548356 11.363906,18.0227724 C12.2219405,18.6830452 13.1874135,19.0133333 14.2603252,19.0133333 C15.5722638,19.0133333 16.6927814,18.5489442 17.6207074,17.6207296 C18.5492403,16.6922115 19.0133333,15.5720153 19.0133333,14.2597941 C19.0131165,13.1871597 18.6831266,12.2217454 18.0233202,11.3633777 Z M14.1113073,13.201554 C13.8391989,13.6843695 13.473873,14.0701103 13.0159801,14.3589932 C12.5578269,14.6478761 12.0524147,14.8683428 11.4995699,15.0211737 C10.9467252,15.1737011 10.3691236,15.2502249 9.76654836,15.2502249 C8.37205804,15.2502249 7.17141675,14.9798985 6.16453777,14.4392457 C5.15765878,13.8985495 4.65428433,13.2489857 4.65428433,12.4896005 C4.65428433,12.118384 4.75955506,11.8092104 4.97000981,11.5614292 C5.1804212,11.3137781 5.49194105,11.1902127 5.90456936,11.1902127 C6.14389985,11.1902127 6.36662462,11.256201 6.57291709,11.3880908 C6.77920957,11.520154 6.96898304,11.6792282 7.14236758,11.8649665 C7.31575211,12.0507482 7.50335773,12.236183 7.70557465,12.4219647 C7.90766151,12.6077463 8.17586774,12.7664737 8.51006329,12.8985369 C8.84434555,13.0306001 9.22189807,13.0967618 9.64289428,13.0967618 C10.1792634,13.0967618 10.6123562,12.9917096 10.9427797,12.7813449 C11.2727262,12.5706767 11.4377429,12.3044691 11.4377429,11.9828089 C11.4377429,11.6525208 11.305851,11.4050431 11.0418937,11.2400291 C10.8605749,11.1241378 10.3982161,10.9756425 9.6554678,10.7941965 L7.84800231,10.3483205 C7.35290904,10.232906 6.92788063,10.0989351 6.57296045,9.94636439 C6.21804027,9.79357686 5.88792028,9.5937044 5.58264383,9.34592326 C5.2774541,9.0984456 5.04636143,8.78701744 4.88953926,8.41137862 C4.73276045,8.03599994 4.65428433,7.59645397 4.65428433,7.09308755 C4.65428433,6.49060867 4.79263643,5.96057813 5.06899377,5.50243231 C5.34535112,5.04437321 5.71280147,4.68533985 6.1706511,4.42541894 C6.62858745,4.16545468 7.1216863,3.97156539 7.64994766,3.84366437 C8.17799223,3.71571998 8.72268588,3.65176947 9.28385518,3.65176947 C10.0762472,3.65176947 10.8268865,3.74671972 11.5367269,3.93649016 C12.2463938,4.1262606 12.8323199,4.40478135 13.2943318,4.77200905 C13.7563871,5.13936682 13.987393,5.54990744 13.987393,6.00371763 C13.987393,6.37493411 13.8700257,6.69277901 13.634554,6.9567754 C13.3998193,7.22072844 13.0882128,7.35279167 12.7002112,7.35279167 C12.4856809,7.35279167 12.287713,7.30323544 12.106134,7.20420969 C11.9246417,7.10522731 11.7597118,6.98560733 11.6108673,6.8453064 C11.4623263,6.70509219 11.3053307,6.56682901 11.1403574,6.43069029 C10.9753408,6.29455157 10.7524859,6.17696933 10.4722265,6.07794359 C10.1913166,5.97891784 9.87381351,5.92936161 9.51898005,5.92936161 C8.33073885,5.92936161 7.73648818,6.24685966 7.73648818,6.88241938 C7.73648818,7.02263359 7.76748841,7.14645913 7.82931546,7.25372257 C7.89118586,7.36098601 7.95938637,7.44765521 8.0335268,7.51368683 C8.10762386,7.57980516 8.23145138,7.64575006 8.40483591,7.71182503 C8.57822045,7.77794336 8.72264253,7.8255052 8.8381455,7.85420706 C8.95360512,7.88308234 9.13531419,7.92639526 9.3827958,7.98410247 L10.6702377,8.28113635 C11.0745415,8.37201112 11.4354016,8.46696137 11.7533383,8.56585705 C12.0711883,8.66505622 12.4115405,8.80522708 12.7746118,8.98684654 C13.1376831,9.16837929 13.438884,9.37046291 13.6780844,9.59331419 C13.9175449,9.8163389 14.117594,10.098675 14.2787085,10.4411463 C14.4397363,10.7837042 14.5199467,11.1612941 14.5199467,11.5737857 C14.5199467,12.1761779 14.3839793,12.7188685 14.1113073,13.201554 Z" id="Shape"></path>
                            </g>
                        </g>
                    </g>
                </g>
            </g>
        </g>
    </g>
</svg>