<?xml version="1.0" encoding="UTF-8"?>
<svg width="31px" height="31px" viewBox="0 0 31 31" version="1.1" xmlns="http://www.w3.org/2000/svg" xmlns:xlink="http://www.w3.org/1999/xlink">
    <!-- Generator: Sketch 58 (84663) - https://sketch.com -->
    <title>white-email</title>
    <desc>Created with Sketch.</desc>
    <g id="Page-1" stroke="none" stroke-width="1" fill="none" fill-rule="evenodd">
        <g id="Home-Page" transform="translate(-1133.000000, -2106.000000)">
            <g id="footer" transform="translate(-2.000000, 2084.000000)">
                <g id="social" transform="translate(1135.000000, 22.000000)">
                    <g id="white-email">
                        <rect id="Rectangle" fill="#B23121" x="0" y="0" width="31" height="31" rx="8"></rect>
                        <rect id="Rectangle" fill="#FFFFFF" x="0" y="0" width="31" height="31" rx="8"></rect>
                        <g id="001-black-back-closed-envelope-shape" transform="translate(6.200000, 8.266667)" fill="#2C3E50" fill-rule="nonzero">
                            <path d="M17.4918143,14.88 C17.9175317,14.88 18.2864112,14.7394062 18.6,14.4617953 L13.2342961,9.09477779 C13.1055596,9.18698229 12.9807774,9.2766418 12.8629065,9.36189916 C12.4613616,9.65780649 12.135463,9.88871326 11.8852109,10.0541724 C11.6349932,10.2200098 11.3020801,10.3890456 10.8865062,10.5616239 C10.4706572,10.7344084 10.0832443,10.8205256 9.72385506,10.8205256 L9.71333333,10.8205256 L9.7028116,10.8205256 C9.34338794,10.8205256 8.9559751,10.7344428 8.54016047,10.5616239 C8.12434584,10.3890456 7.79143281,10.2200098 7.54145577,10.0541724 C7.29123803,9.88871326 6.96551141,9.65784088 6.56376014,9.36189916 C6.45180343,9.27980585 6.32764014,9.18973364 6.19340213,9.09333333 L0.826666667,14.4617953 C1.14022109,14.7394062 1.50934125,14.88 1.9350243,14.88 L17.4918143,14.88 L17.4918143,14.88 Z" id="Path"></path>
                            <path d="M1.11961611,5.84461429 C0.698520441,5.58710897 0.325098698,5.29219344 0,4.96 L0,12.8133333 L4.96,8.26387426 C3.96771872,7.62846294 2.68921354,6.82296911 1.11961611,5.84461429 Z" id="Path"></path>
                            <path d="M17.9044891,5.84459193 C16.3941506,6.78184129 15.1104801,7.58870397 14.0533333,8.26560997 L19.0133333,12.8133333 L19.0133333,4.96 C18.6953199,5.28550363 18.3257532,5.58021325 17.9044891,5.84459193 Z" id="Path"></path>
                            <path d="M17.315562,0 L1.69752967,0 C1.1526632,0 0.733760865,0.183988865 0.440304848,0.55158688 C0.146607188,0.919357492 0,1.37929513 0,1.93088201 C0,2.37642503 0.194555713,2.85918005 0.583494538,3.37928516 C0.972433364,3.89918315 1.38629576,4.30754868 1.8248746,4.60458886 C2.06530762,4.77445926 2.7903694,5.27851281 4.00005994,6.11657691 C4.65307811,6.56909286 5.22096953,6.96351252 5.70898126,7.30387466 C6.12494938,7.59370027 6.48368306,7.84469145 6.77986617,8.05298204 C6.81386854,8.076835 6.86734029,8.1150826 6.93831378,8.16582624 C7.01477597,8.22074674 7.11153602,8.29044159 7.23090679,8.37663675 C7.46077664,8.5428826 7.65174226,8.67726696 7.80383815,8.77992791 C7.95572693,8.88262338 8.13975399,8.99733164 8.35564317,9.12470855 C8.57135975,9.25191285 8.77482167,9.34756635 8.96578729,9.41118577 C9.15678742,9.47477066 9.33359976,9.50666667 9.49625883,9.50666667 L9.50682201,9.50666667 L9.51738518,9.50666667 C9.68000973,9.50666667 9.85685659,9.47477066 10.0478912,9.41118577 C10.2388223,9.34756635 10.4421117,9.25211997 10.6580008,9.12470855 C10.8736829,8.99733164 11.0574683,8.88238175 11.2098404,8.77992791 C11.3619363,8.67726696 11.5529019,8.54291711 11.7828063,8.37663675 C11.9019354,8.29044159 11.9986954,8.22071222 12.0751576,8.16599884 C12.1461656,8.11504808 12.1996029,8.07704212 12.2338124,8.05298204 C12.4645452,7.89243191 12.8241074,7.6424763 13.3075279,7.30680881 C14.1871711,6.6956413 15.4826442,5.79609799 17.1994016,4.60458886 C17.7157199,4.24396379 18.147084,3.80877662 18.4937702,3.2996487 C18.8398349,2.79052079 19.0133333,2.25646981 19.0133333,1.69766836 C19.0133333,1.2307923 18.8451165,0.831298281 18.5094078,0.498564948 C18.1733194,0.166245848 17.7753363,0 17.315562,0 Z" id="Path"></path>
                        </g>
                    </g>
                </g>
            </g>
        </g>
    </g>
</svg>