<?xml version="1.0" encoding="UTF-8"?>
<svg width="95px" height="95px" viewBox="0 0 95 95" version="1.1" xmlns="http://www.w3.org/2000/svg" xmlns:xlink="http://www.w3.org/1999/xlink">
    <!-- Generator: Sketch 58 (84663) - https://sketch.com -->
    <title>005-guarantee-certificate</title>
    <desc>Created with Sketch.</desc>
    <g id="Page-1" stroke="none" stroke-width="1" fill="none" fill-rule="evenodd">
        <g id="Home-Page" transform="translate(-153.000000, -1279.000000)" fill="#2C3E50" fill-rule="nonzero">
            <g id="Blog" transform="translate(153.000000, 1279.000000)">
                <g id="acknowledgement">
                    <g id="005-guarantee-certificate">
                        <path d="M64.5,53 C59.2607129,53 55,57.2607129 55,62.5 C55,67.7392871 59.2607129,72 64.5,72 C69.7392871,72 74,67.7392871 74,62.5 C74,57.2607129 69.7392871,53 64.5,53 Z M64.5,68.8332715 C61.0070801,68.8332715 58.1667285,65.9927344 58.1667285,62.5 C58.1667285,59.0070801 61.0072656,56.1667285 64.5,56.1667285 C67.9929199,56.1667285 70.8332715,59.0072656 70.8332715,62.5 C70.833457,65.9929199 67.9929199,68.8332715 64.5,68.8332715 Z" id="Shape"></path>
                        <path d="M66.7499524,69 L66.7499524,75.4932282 L64.400252,73.9783872 C63.8542927,73.6248138 63.1441839,73.6248138 62.5980342,73.9783872 L60.2498572,75.4932282 L60.2498572,69 L57,69 L57,78.428624 C57,79.0085213 57.3298226,79.5412753 57.8595954,79.8145581 C58.3861309,80.088025 59.0295897,80.0565349 59.5267992,79.7359249 L63.4999048,77.1745434 L67.4730104,79.7359249 C67.7443714,79.9103176 68.0597214,80 68.374881,80 C68.6380535,80 68.9014165,79.9386771 69.141928,79.8145581 C69.669987,79.5410912 70,79.0083371 70,78.428624 L70,69 L66.7499524,69 Z" id="Path"></path>
                        <rect id="Rectangle" x="36" y="16" width="21" height="4"></rect>
                        <rect id="Rectangle" x="23" y="24" width="51" height="4"></rect>
                        <rect id="Rectangle" x="23" y="34" width="34" height="4"></rect>
                        <rect id="Rectangle" x="64" y="34" width="10" height="4"></rect>
                        <rect id="Rectangle" x="23" y="44" width="51" height="4"></rect>
                        <rect id="Rectangle" x="21" y="53" width="19" height="4"></rect>
                        <rect id="Rectangle" x="23" y="62" width="8" height="4"></rect>
                        <rect id="Rectangle" x="36" y="62" width="5" height="4"></rect>
                        <path d="M86.5000996,0 C81.813261,0 78,3.64480642 78,8.1250238 L78,11.3750714 C78,12.2719909 78.7598233,13 79.6999402,13 L93.3000598,13 C94.2401767,13 95,12.2719909 95,11.3750714 L95,8.1250238 C95.0001992,3.64480642 91.1871374,0 86.5000996,0 Z M91.6001195,9.74995239 L81.4000797,9.74995239 L81.4000797,8.1250238 C81.4000797,5.43731232 83.6883152,3.25004761 86.5000996,3.25004761 C89.311884,3.25004761 91.6001195,5.43731232 91.6001195,8.1250238 L91.6001195,9.74995239 L91.6001195,9.74995239 Z" id="Shape"></path>
                        <path d="M87.416543,0 L20.916543,0 C16.5513672,0 13,3.55136719 13,7.91672852 L13,83.9167285 L16.1667285,83.9167285 L16.1667285,7.91672852 C16.1667285,5.29791992 18.2979199,3.16672852 20.9167285,3.16672852 L81.0866113,3.16672852 C80.0907812,4.49041992 79.5001855,6.13547852 79.5001855,7.91672852 L79.5001855,87.083457 C79.5001855,89.7022656 77.3689941,91.833457 74.7501855,91.833457 L14.5832715,91.833457 L14.5832715,95 L74.75,95 C79.1151758,95 82.6667285,91.4486328 82.6667285,87.0832715 L82.6667285,7.91672852 C82.6667285,5.29791992 84.7979199,3.16672852 87.4167285,3.16672852 C88.2923242,3.16672852 89,2.45738281 89,1.58345703 C89,0.70953125 88.2921387,0 87.416543,0 Z" id="Path"></path>
                        <path d="M74.4167285,91.7499524 C71.7979199,91.7499524 69.6667285,89.5626877 69.6667285,86.8749762 L69.6667285,83.6249286 C69.6667285,82.7262953 68.9590527,82 68.083457,82 L1.58327148,82 C0.709345703,82 0,82.7262953 0,83.6249286 L0,86.8749762 C0,91.3551936 3.55136719,95 7.91672852,95 L74.4167285,95 C75.2923242,95 76,94.2737047 76,93.3750714 C76,92.4764381 75.2923242,91.7499524 74.4167285,91.7499524 Z M7.91672852,91.7499524 C5.29791992,91.7499524 3.16672852,89.5626877 3.16672852,86.8749762 L3.16672852,85.2500476 L66.5,85.2500476 L66.5,86.8749762 C66.5,88.7030923 67.0905957,90.3914336 68.0864258,91.7499524 L7.91672852,91.7499524 L7.91672852,91.7499524 Z" id="Shape"></path>
                    </g>
                </g>
            </g>
        </g>
    </g>
</svg>