<?xml version="1.0" encoding="UTF-8"?>
<svg width="95px" height="105px" viewBox="0 0 95 105" version="1.1" xmlns="http://www.w3.org/2000/svg" xmlns:xlink="http://www.w3.org/1999/xlink">
    <!-- Generator: Sketch 58 (84663) - https://sketch.com -->
    <title>007-phonebook</title>
    <desc>Created with Sketch.</desc>
    <g id="Page-1" stroke="none" stroke-width="1" fill="none" fill-rule="evenodd">
        <g id="Home-Page" transform="translate(-149.000000, -1735.000000)" fill="#2C3E50" fill-rule="nonzero">
            <g id="Contacts" transform="translate(149.000000, 1735.000000)">
                <g id="007-phonebook">
                    <path d="M93.4726688,14.4580078 C94.3163666,14.4580078 95,13.7693555 95,12.9199219 L95,6.45996094 C95,2.89795898 92.1223044,0 88.585209,0 L27.8460986,0 C27.0026045,0 26.3187674,0.688652344 26.3187674,1.53808594 C26.3187674,2.38751953 27.0026045,3.07617188 27.8460986,3.07617188 L75.9592712,3.07617188 C77.8122294,3.07617188 79.3193998,4.59416016 79.3193998,6.45996094 L79.3193998,98.5400391 C79.3193998,100.40584 77.8122294,101.923828 75.9592712,101.923828 L14.4587353,101.923828 C12.6059807,101.923828 11.0986066,100.40584 11.0986066,98.5400391 L11.0986066,93.4130859 L13.9496249,93.4130859 C17.0376849,93.4130859 19.5498392,90.8832422 19.5498392,87.7734375 C19.5498392,84.6636328 17.0376849,82.1337891 13.9496249,82.1337891 L11.0986066,82.1337891 L11.0986066,78.7904004 C11.0986066,77.9409668 10.4147696,77.2523145 9.57127546,77.2523145 C8.72778135,77.2523145 8.04394427,77.9409668 8.04394427,78.7904004 L8.04394427,82.1337891 L5.60021436,82.1337891 C2.51215434,82.1337891 0,84.6636328 0,87.7734375 C0,90.8832422 2.51215434,93.4130859 5.60021436,93.4130859 L8.04394427,93.4130859 L8.04394427,98.5400391 C8.04394427,102.102041 10.9216399,105 14.4587353,105 L88.585209,105 C92.1223044,105 95,102.102041 95,98.5400391 L95,19.6995996 C95,18.850166 94.3163666,18.1615137 93.4726688,18.1615137 C92.6289711,18.1615137 91.9453376,18.850166 91.9453376,19.6995996 L91.9453376,98.5400391 C91.9453376,100.40584 90.4379636,101.923828 88.585209,101.923828 L81.4216184,101.923828 C81.9918221,100.993594 82.3345552,99.9077051 82.3706002,98.7451172 L86.8581029,98.7451172 C87.7018006,98.7451172 88.3854341,98.0564648 88.3854341,97.2070312 L88.3854341,7.79296875 C88.3854341,6.94353516 87.7018006,6.25488281 86.8581029,6.25488281 L82.3706002,6.25488281 C82.3343516,5.09229492 81.9918221,4.00640625 81.4216184,3.07617188 L88.585209,3.07617188 C90.4379636,3.07617188 91.9453376,4.59416016 91.9453376,6.45996094 L91.9453376,12.9199219 C91.9453376,13.7693555 92.6289711,14.4580078 93.4726688,14.4580078 Z M3,87.5 C3,86.1214 4.10440909,85 5.46212121,85 L13.5378788,85 C14.8955909,85 16,86.1214 16,87.5 C16,88.8786 14.8955909,90 13.5378788,90 L5.46212121,90 C4.10440909,90 3,88.8786 3,87.5 Z M85,95 L82,95 L82,9 L85,9 L85,95 Z" id="Shape"></path>
                    <path d="M5.81065508,58.8191076 C2.71897881,58.8191076 0.203882635,61.3605876 0.203882635,64.484696 C0.203882635,67.6088044 2.71897881,70.1502843 5.81065508,70.1502843 L8.35918802,70.1502843 L8.35918802,72.4548396 C8.35918802,73.3081802 9.0438259,74 9.88830777,74 C10.7327896,74 11.4174275,73.3081802 11.4174275,72.4548396 L11.4174275,70.1502843 L14.1698431,70.1502843 C17.2615194,70.1502843 19.7766155,67.6088044 19.7766155,64.484696 C19.7766155,61.3605876 17.2615194,58.8191076 14.1698431,58.8191076 L11.4174275,58.8191076 L11.4174275,46.4578241 L14.0679018,46.4578241 C17.1595781,46.4578241 19.6746742,43.9163442 19.6746742,40.7922358 C19.6746742,37.6681274 17.1595781,35.1266475 14.0679018,35.1266475 L11.4174275,35.1266475 L11.4174275,22.7653639 L13.9659605,22.7653639 C17.0576367,22.7653639 19.5727329,20.223884 19.5727329,17.0997756 C19.5727329,13.9756672 17.0576367,11.4341873 13.9659605,11.4341873 L11.4174275,11.4341873 L11.4174275,6.48967387 C11.4174275,4.61529124 12.9265668,3.09032089 14.781491,3.09032089 L21.4708802,3.09032089 C22.3153621,3.09032089 23,2.39850106 23,1.54516045 C23,0.691819837 22.3153621,0 21.4708802,0 L14.781491,0 C11.2402535,0 8.35918802,2.9112883 8.35918802,6.48967387 L8.35918802,11.4341873 L5.60677245,11.4341873 C2.51509618,11.4341873 0,13.9756672 0,17.0997756 C0,20.223884 2.51509618,22.7653639 5.60677245,22.7653639 L8.35918802,22.7653639 L8.35918802,35.1266475 L5.70871377,35.1266475 C2.6170375,35.1266475 0.101941317,37.6681274 0.101941317,40.7922358 C0.101941317,43.9163442 2.6170375,46.4578241 5.70871377,46.4578241 L8.35918802,46.4578241 L8.35918802,58.8191076 L5.81065508,58.8191076 Z M3,17.5 C3,16.1214 4.10440909,15 5.46212121,15 L13.5378788,15 C14.8955909,15 16,16.1214 16,17.5 C16,18.8786 14.8955909,20 13.5378788,20 L5.46212121,20 C4.10440909,20 3,18.8786 3,17.5 Z M3,40.5 C3,39.1214 4.10440909,38 5.46212121,38 L13.5378788,38 C14.8955909,38 16,39.1214 16,40.5 C16,41.8786 14.8955909,43 13.5378788,43 L5.46212121,43 C4.10440909,43 3,41.8786 3,40.5 Z M16,64.5 C16,65.8786 14.8955909,67 13.5378788,67 L5.46212121,67 C4.10440909,67 3,65.8786 3,64.5 C3,63.1214 4.10440909,62 5.46212121,62 L13.5378788,62 C14.8955909,62 16,63.1214 16,64.5 Z" id="Shape"></path>
                    <path d="M28,78.5 C28,79.3284 28.706041,80 29.5769231,80 L67.4230769,80 C68.2941692,80 69,79.3284 69,78.5 C69,77.6716 68.2941692,77 67.4230769,77 L29.5769231,77 C28.706041,77 28,77.6716 28,78.5 Z" id="Path"></path>
                    <path d="M29.5769231,89 L67.4230769,89 C68.2941692,89 69,88.1045333 69,87 C69,85.8954667 68.2941692,85 67.4230769,85 L29.5769231,85 C28.706041,85 28,85.8954667 28,87 C28,88.1045333 28.706041,89 29.5769231,89 Z" id="Path"></path>
                    <path d="M47.4254114,32.2510434 L51.8445019,32.8376461 C53.5800061,33.0663606 55.1597995,31.8806344 55.4475034,30.1358514 L56.9549068,20.9906093 C57.2046627,19.476419 56.3982668,18.0118948 54.9941893,17.4292571 C53.4226454,16.7771285 51.1614372,16 49.3149763,16 C46.9401302,16 42.9535235,17.2510434 39.5332501,20.7771285 C35.198099,25.2462437 33,31.9392738 33,40.6707012 L33,47.3292988 C33,56.0607262 35.198099,62.7539649 39.5332501,67.2228715 C42.9535235,70.7487479 46.9403364,72 49.3149763,72 C51.1616434,72 53.4226454,71.2226628 54.9943955,70.5707429 C56.398473,69.9881052 57.2046627,68.523581 56.9549068,67.0093907 L55.4475034,57.8649833 C55.1597995,56.120409 53.5783562,54.9340568 51.8453269,55.1631886 L47.4256176,55.7489566 C43.0688113,55.3670701 43.0180765,47.5214942 43.0180765,47.1844741 L43.0180765,40.8155259 C43.0180765,40.4787145 43.0686051,32.6329299 47.4254114,32.2510434 Z M41.226689,54.2499664 C42.5355496,57.1884775 44.676829,58.8177905 47.4193922,58.9616953 C47.5146389,58.9667299 47.6098856,58.962954 47.7036734,58.9505773 L52.323868,58.3413942 C52.3999403,58.3315349 52.4624655,58.3818806 52.4747622,58.4550916 L53.9980842,67.6473787 C54.0087135,67.7115694 53.9743246,67.7736625 53.9145089,67.7984158 C52.0368774,68.5731104 50.4197676,69 49.3610077,69 C48.0154656,69 44.6841236,68.1934198 41.7070909,65.1403722 C37.9735034,61.311791 36,55.1587065 36,47.3467309 L36,40.6532691 C36,32.8412935 37.9735034,26.6884188 41.7070909,22.8596278 C44.6841236,19.8065802 48.0154656,19 49.3610077,19 C50.4195592,19 52.036669,19.4266799 53.9143004,20.2015842 C53.9743246,20.2263375 54.0087135,20.2884306 53.9980842,20.3526213 L52.4747622,29.5455377 C52.4624655,29.6189585 52.3941047,29.6690944 52.323868,29.6592351 L47.7040902,29.0494227 C47.6094688,29.037046 47.5140136,29.0330603 47.4193922,29.0383047 C41.847981,29.3305196 39.8711429,35.5563956 39.8711429,40.7990619 L39.8711429,47.2013577 C39.8713513,48.4054592 40.0032795,51.5033983 41.226689,54.2499664 L41.226689,54.2499664 Z" id="Shape"></path>
                </g>
            </g>
        </g>
    </g>
</svg>