<?xml version="1.0" encoding="UTF-8"?>
<svg width="95px" height="95px" viewBox="0 0 95 95" version="1.1" xmlns="http://www.w3.org/2000/svg" xmlns:xlink="http://www.w3.org/1999/xlink">
    <!-- Generator: Sketch 58 (84663) - https://sketch.com -->
    <title>001-project</title>
    <desc>Created with Sketch.</desc>
    <g id="Page-1" stroke="none" stroke-width="1" fill="none" fill-rule="evenodd">
        <g id="Home-Page" transform="translate(-149.000000, -381.000000)" fill="#2C3E50" fill-rule="nonzero">
            <g id="Projects" transform="translate(149.000000, 381.000000)">
                <g id="001-project">
                    <g>
                        <path d="M93.3925748,0 L21.0713772,0 C20.1838354,0 19.4642395,0.7089375 19.4642395,1.58333333 L19.4642395,25.3333333 L22.678515,25.3333333 L22.678515,3.16666667 L91.785437,3.16666667 L91.785437,90.25 C91.8009057,91.0826354 91.1488096,91.7800937 90.3052632,91.8333333 C90.1670493,91.8333333 90.0288355,91.82225 89.8906217,91.8190833 C89.6061583,91.8111667 89.3216949,91.8048333 89.0420529,91.7763333 C89.0179459,91.7763333 88.9954459,91.7763333 88.9713389,91.7668333 C83.7224271,91.2015833 79.5762126,87.1207396 78.9974422,81.9501667 C78.9974422,81.928 78.9894065,81.90425 78.9861922,81.8820833 C78.9472191,81.5058437 78.9279335,81.1280208 78.9283352,80.75 L78.9283352,77.5833333 C78.9283352,76.7089375 78.2087393,76 77.3211975,76 L22.678515,76 L22.678515,47.5 L19.4642395,47.5 L19.4642395,76 L6.60713772,76 C5.71959592,76 5,76.7089375 5,77.5833333 L5,80.75 C5.00883926,88.6163958 11.4795775,94.9912917 19.4642395,95 L90.3390131,95 C92.9469958,94.9327083 95.0198017,92.8201458 94.9998573,90.25 L94.9998573,1.58333333 C94.9998573,0.7089375 94.2801166,0 93.3925748,0 Z M19.4642395,91.8333333 C13.2540585,91.8264063 8.22130667,86.8681979 8.21427545,80.75 L8.21427545,79.1666667 L75.7140598,79.1666667 L75.7140598,80.75 C75.7162696,81.2721042 75.7468052,81.7938125 75.8056667,82.31275 C75.8201309,82.4505 75.8474522,82.5835 75.8667379,82.7196667 C75.9197734,83.1028333 75.9840589,83.4844167 76.0692372,83.8596667 C76.0981657,83.9910833 76.1351299,84.1209167 76.1688798,84.2523333 C76.2669152,84.6339167 76.3778077,85.0091667 76.5063787,85.3796667 C76.5433429,85.48575 76.5819142,85.59025 76.6220926,85.6963333 C76.7683422,86.089 76.9338773,86.4721667 77.1154839,86.8505833 C77.1540552,86.9281667 77.1894122,87.0089167 77.2279835,87.0801667 C77.4294784,87.4813437 77.6506608,87.8712396 77.8917314,88.25025 C77.9238742,88.3009167 77.9528027,88.3531667 77.9849454,88.4085833 C78.2469089,88.8129271 78.5297651,89.2040104 78.831907,89.58025 L78.8833354,89.6483333 C79.2340932,90.0823646 79.6097616,90.4962083 80.0083318,90.8880833 C80.3544691,91.2259271 80.7132626,91.5425938 81.0851141,91.8380833 L19.4642395,91.8333333 Z" id="Shape"></path>
                        <path d="M52.1055631,44 C52.5243813,44 52.925831,43.8312 53.2218853,43.5312 L59.5377112,37.1312 C60.1540963,36.5064 60.1540963,35.4936 59.5377112,34.8688 L53.2218853,28.4688 C52.925831,28.1688 52.5243813,28 52.1055631,28 L7.89478229,28 C3.5346914,28 0,31.5818 0,36 C0,40.4182 3.5346914,44 7.89478229,44 L52.1055631,44 Z M51.6981923,31.4496 L56.1887445,36 L51.6981923,40.5504 L50.5755543,36 L51.6981923,31.4496 Z M12.6316517,31.2 L48.5055424,31.2 L47.7160642,34.4 L15.7895646,34.4 L15.7895646,37.6 L47.7160642,37.6 L48.5055424,40.8 L12.6316517,40.8 L12.6316517,31.2 Z M3.15791292,36 C3.15791292,33.349 5.27864881,31.2 7.89478229,31.2 L9.47373875,31.2 L9.47373875,40.8 L7.89478229,40.8 C5.27864881,40.8 3.15791292,38.651 3.15791292,36 Z" id="Shape"></path>
                        <path d="M36.5309487,69 L82.4687403,69 C83.3143785,69 84,68.2863929 84,67.4062376 L84,19.5933641 C84,18.7132087 83.3141871,18 82.4683575,18 C82.0623822,18 81.6732509,18.1679428 81.3861397,18.466574 L35.4483481,66.2794475 C34.8503912,66.902011 34.8505826,67.9110618 35.4487309,68.533426 C35.7358421,68.8320573 36.1249735,69 36.5309487,69 Z M80.9374806,23.4407066 L80.9374806,27.5621763 L77.8749611,27.5621763 L77.8749611,30.7497012 L80.9374806,30.7497012 L80.9374806,33.9372261 L77.8749611,33.9372261 L77.8749611,37.124751 L80.9374806,37.124751 L80.9374806,40.3122759 L77.8749611,40.3122759 L77.8749611,43.4998008 L80.9374806,43.4998008 L80.9374806,46.6873257 L77.8749611,46.6873257 L77.8749611,49.8748506 L80.9374806,49.8748506 L80.9374806,53.0623755 L77.8749611,53.0623755 L77.8749611,56.2499004 L80.9374806,56.2499004 L80.9374806,59.4374253 L77.8749611,59.4374253 L77.8749611,62.6249502 L80.9374806,62.6249502 L80.9374806,65.8124751 L77.8749611,65.8124751 L77.8749611,62.6249502 L74.8124417,62.6249502 L74.8124417,65.8124751 L71.7499222,65.8124751 L71.7499222,62.6249502 L68.6874028,62.6249502 L68.6874028,65.8124751 L65.6248834,65.8124751 L65.6248834,62.6249502 L62.5623639,62.6249502 L62.5623639,65.8124751 L59.4998445,65.8124751 L59.4998445,62.6249502 L56.4373251,62.6249502 L56.4373251,65.8124751 L53.3748056,65.8124751 L53.3748056,62.6249502 L50.3122862,62.6249502 L50.3122862,65.8124751 L47.2497667,65.8124751 L47.2497667,62.6249502 L44.1872473,62.6249502 L44.1872473,65.8124751 L40.2274097,65.8124751 L80.9374806,23.4407066 Z" id="Shape"></path>
                        <path d="M59.5628885,58 L74.436794,58 C75.3000745,58 76,57.3000715 76,56.4367874 L76,41.5628217 C75.9998046,40.6995376 75.2998791,39.9998047 74.4364032,40 C74.0219582,40 73.6247084,40.1647236 73.3316073,40.4576305 L58.4577019,55.3315963 C57.8472699,55.9422261 57.8474653,56.9319349 58.4580927,57.5423694 C58.7511938,57.8352763 59.1484435,58 59.5628885,58 Z M72.8735879,45.3379795 L72.8735879,54.873575 L63.3380311,54.873575 L72.8735879,45.3379795 Z" id="Shape"></path>
                        <rect id="Rectangle" x="40" y="9" width="32" height="4"></rect>
                        <rect id="Rectangle" x="37" y="16" width="40" height="4"></rect>
                        <rect id="Rectangle" x="26" y="49" width="9" height="4"></rect>
                        <rect id="Rectangle" x="28" y="56" width="5" height="4"></rect>
                    </g>
                </g>
            </g>
        </g>
    </g>
</svg>