<?xml version="1.0" encoding="UTF-8"?>
<svg width="88px" height="95px" viewBox="0 0 88 95" version="1.1" xmlns="http://www.w3.org/2000/svg" xmlns:xlink="http://www.w3.org/1999/xlink">
    <!-- Generator: Sketch 58 (84663) - https://sketch.com -->
    <title>002-analytics</title>
    <desc>Created with Sketch.</desc>
    <g id="Page-1" stroke="none" stroke-width="1" fill="none" fill-rule="evenodd">
        <g id="Home-Page" transform="translate(-159.000000, -755.000000)" fill="#2C3E50" fill-rule="nonzero">
            <g id="Publications" transform="translate(159.000000, 755.000000)">
                <g id="publications">
                    <g id="002-analytics">
                        <path d="M86.4285714,0 L15.7142857,0 C14.8464643,0 14.1428571,0.7089375 14.1428571,1.58333333 L14.1428571,76 L1.57142857,76 C0.703607143,76 0,76.7089375 0,77.5833333 L0,80.75 C0.00864285714,88.6163958 6.33560714,94.9912917 14.1428571,95 L83.2857143,95 C85.889375,95 88,92.8733854 88,90.25 L88,1.58333333 C88,0.7089375 87.2963929,0 86.4285714,0 Z M14.1428571,91.8333333 C8.07066071,91.8264062 3.14973214,86.8681979 3.14285714,80.75 L3.14285714,79.1666667 L69.1428571,79.1666667 L69.1428571,80.75 C69.1440357,81.2717083 69.1740893,81.7928229 69.2324286,82.3111667 C69.2497143,82.4805833 69.2842857,82.6436667 69.3078571,82.8115 C69.3581429,83.1535 69.41,83.4923333 69.4838571,83.8248333 C69.5262857,84.018 69.5797143,84.2048333 69.63,84.3948333 C69.7085714,84.6956667 69.7871429,84.9933333 69.8892857,85.2846667 C69.9537143,85.4778333 70.026,85.6678333 70.0982857,85.8578333 C70.2029821,86.1365 70.3182857,86.4114062 70.444,86.68275 C70.5272857,86.868 70.6137143,87.0500833 70.7048571,87.229 C70.8415714,87.4981667 70.9892857,87.7578333 71.1417143,88.0206667 C71.2407143,88.1885 71.3381429,88.3579167 71.4434286,88.521 C71.6162857,88.787 71.8032857,89.0435 71.9934286,89.2984167 C72.0971429,89.4361667 72.1945714,89.58025 72.3077143,89.7148333 C72.5591429,90.0315 72.8278571,90.326 73.1044286,90.61575 C73.1657143,90.6790833 73.2191429,90.74875 73.2804286,90.8105 C73.6226071,91.1552708 73.981875,91.4824271 74.3568571,91.7905833 C74.371,91.8000833 74.3867143,91.8190833 74.4055714,91.8333333 L14.1428571,91.8333333 Z M84.8571429,90.25 C84.8571429,91.1243958 84.1535357,91.8333333 83.2857143,91.8333333 C77.2135179,91.8264062 72.2925893,86.8681979 72.2857143,80.75 L72.2857143,77.5833333 C72.2857143,76.7089375 71.5821071,76 70.7142857,76 L17.2857143,76 L17.2857143,3.16666667 L84.8571429,3.16666667 L84.8571429,90.25 Z" id="Shape"></path>
                        <path d="M71,34.6235806 L71,31.5412411 L67.8461538,31.5412411 C67.427875,31.5412411 67.0269423,31.7038345 66.7312692,31.9928038 L63.5316923,35.1182961 C60.0252067,31.8344486 55.3565288,30.0008419 50.5,30.0000356 C40.0690481,29.9802288 31.5968317,38.2283767 31.5765288,48.4228293 C31.5684471,52.439503 32.9013413,56.3488728 35.3725769,59.5581661 L32.501,62.3646363 L30,62.3646363 L30,65.4469758 L33.1538462,65.4469758 C33.572125,65.4469758 33.9730577,65.2843824 34.2687308,64.9954131 L37.4683077,61.8699208 C45.0028462,68.9234695 56.9614423,68.6722588 64.1788221,61.3085497 C70.5852692,54.7720635 71.1986923,44.6606413 65.6274231,37.4300507 L68.499,34.6235806 L71,34.6235806 Z M39.6965,59.6907067 L43.7302692,55.7483945 L41.5005,53.5691805 L37.6228462,57.3589169 C32.6007404,50.4226898 34.2829231,40.8208169 41.3798654,35.9125765 C43.6076635,34.371792 46.207024,33.4235873 48.9230769,33.1610105 L48.9230769,48.4941084 C48.9230769,48.9029037 49.0894423,49.2947461 49.3851154,49.5837155 L60.4724615,60.41968 C54.3500577,65.3325439 45.4426106,65.0198791 39.6965,59.6907067 Z M66.269236,48.4941084 C66.2721875,52.0488165 65.0112404,55.4939088 62.7022308,58.240466 L52.0769231,47.8560642 L52.0769231,33.1610105 C55.536101,33.5039208 58.7812115,34.9585924 61.3035,37.2975101 L57.2697308,41.2398224 L59.4995,43.4190364 L63.3771538,39.6293 C65.2590144,42.2194284 66.269625,45.3175649 66.269236,48.4941084 Z" id="Shape"></path>
                        <rect id="Rectangle" x="73" y="26" width="6" height="4"></rect>
                        <rect id="Rectangle" x="73" y="31" width="6" height="4"></rect>
                        <rect id="Rectangle" x="21" y="59" width="4" height="4"></rect>
                        <rect id="Rectangle" x="23" y="65" width="6" height="4"></rect>
                        <rect id="Rectangle" x="26" y="9" width="39" height="4"></rect>
                        <rect id="Rectangle" x="26" y="16" width="39" height="4"></rect>
                    </g>
                </g>
            </g>
        </g>
    </g>
</svg>